# xmcd CD database file generated by OrangeCD 5.1
#
# Track frame offsets:
#	150
#	15072
#	31383
#	46598
#	58970
#	87380
#	105858
#	124414
#	139460
#	156376
#
# Disc length: 2288 seconds
#
# Revision: 0
# Processed by: cddbd v1.5PL3 Copyright (c) Steve Scherf et al.
# Submitted via: OrangeCD 5.1
#
DISCID=7d08ee0a
DTITLE=Mary Haitz and James Anthony - No Borders
DYEAR=1900
DGENRE=Blues
TTITLE0=Prison Blues
TTITLE1=What Can I Do For You
TTITLE2=Big Woman Blues
TTITLE3=I Saw You
TTITLE4=Great Big Fool
TTITLE5=Enough Is Enough
TTITLE6=Get Out Or Get Over It
TTITLE7=Don't Come Back
TTITLE8=Stay Up All Night Woman
TTITLE9=Cheatin Clothes
EXTD=
EXTT0=
EXTT1=
EXTT2=
EXTT3=
EXTT4=
EXTT5=
EXTT6=
EXTT7=
EXTT8=
EXTT9=
PLAYORDER=
